Coordinates
version=1
nRows=16
nColumns=33
inDegrees=yes

Units are S.I. units (second, meters, Newtons, ...)
Angles are in degrees.

endheader
time	ground_thorax_rot_x	ground_thorax_rot_y	ground_thorax_rot_z	ground_thorax_tx	ground_thorax_ty	ground_thorax_tz	clav_prot_r	clav_elev_r	scapula_abduction_r	scapula_elevation_r	scapula_upward_rot_r	scapula_winging_r	shoulder_elv_r	plane_of_elev_r	axial_rot_r	elbow_flexion_r	pro_sup_r	wrist_flex_r	wrist_dev_r	clav_prot_l	clav_elev_l	scapula_abduction_l	scapula_elevation_l	scapula_upward_rot_l	scapula_winging_l	shoulder_elv_l	plane_of_elev_l	axial_rot_l	elbow_flexion_l	pro_sup_l	wrist_flex_l	wrist_dev_l
      4.45000000	     35.18364355	     13.65982942	     18.18766959	   -242.85709843	    820.09044156	      1.59514291	     17.93199861	     45.00000000	     44.63061551	     45.00000000	     44.99354723	   3215.21792752	  -1619.79895429	    -90.00000000	    -99.88026460	   1801.90450691	    203.19249772	     16.67967621	     12.60218633	     11.44350506	    -45.00000000	    -38.43593970	     45.00000000	    -43.87991579	  -2780.04959971	   -452.84770343	    139.24781955	    164.81051788	   1819.58489307	    136.05759703	     -5.76044744	    -14.79452908
      4.46000000	     35.35345983	     13.45320694	     18.03702066	   -243.48653298	    819.62618794	      1.56902161	     18.09187603	     45.00000000	     45.00000000	     45.00000000	     45.00000000	   3215.17878070	  -1618.40541766	    -90.00000000	   -101.26957821	   1802.38363219	    204.97759572	     16.30387357	     13.20484599	     10.49789228	    -45.00000000	    -38.05293509	     45.00000000	    -43.62908484	  -2779.73920873	   -452.98634215	    138.94292293	    164.32278531	   1819.57016255	    135.03704277	     -5.37818914	    -15.36354614
      4.47000000	     35.42273518	     13.57873464	     18.19596540	   -243.83548640	    819.16918704	      1.52814441	     18.20738688	     45.00000000	     45.00000000	     45.00000000	     44.85644384	   3215.22875590	  -1617.79522765	    -90.00000000	   -101.87556164	   1802.62731260	    206.48821673	     16.58758801	     12.82224514	     10.69877479	    -45.00000000	    -37.71391339	     45.00000000	    -44.24268002	  -2779.95617897	   -452.86955862	    138.90919863	    164.63471619	   1819.47256180	    133.99048513	     -5.29236395	    -15.18629332
      4.48000000	     35.46423717	     13.62504803	     18.28891099	   -243.92667849	    818.69539483	      1.47893759	     18.29235744	     45.00000000	     44.99085047	     45.00000000	     44.85298360	   3215.18020556	  -1617.43672019	    -90.00000000	   -102.22975953	   1802.62506411	    207.86478140	     16.68003059	     12.87812550	     10.63613833	    -45.00000000	    -37.69670892	     45.00000000	    -44.47071198	  -2779.85791682	   -452.93032932	    138.68330660	    165.35036831	   1819.40048812	    132.89783632	     -5.17385072	    -15.39361198
      4.49000000	     35.48902743	     13.79299062	     18.52537159	   -243.80270519	    818.21339856	      1.42536779	     18.32425077	     45.00000000	     44.93668997	     45.00000000	     44.70470225	   3215.15635743	  -1617.22509579	    -90.00000000	   -102.43720682	   1802.55781475	    208.98550930	     16.92427267	     12.75701303	     10.72373694	    -45.00000000	    -37.58792655	     45.00000000	    -44.60322042	  -2779.97992846	   -452.97861367	    138.72280448	    166.10111805	   1819.26680367	    131.59215734	     -5.18546152	    -15.52925294
      4.50000000	     35.57168986	     13.62923355	     18.62674764	   -243.51799549	    817.72080003	      1.36936069	     19.57932647	     45.00000000	     45.00000000	     45.00000000	     44.79543816	   3215.54493163	  -1614.14257615	    -90.00000000	   -105.29662682	   1801.94812378	    230.60975683	     18.49840153	     11.24393880	     10.59579259	    -45.00000000	    -37.34634967	     45.00000000	    -41.72597079	  -2779.33155056	   -453.89668638	    136.77106515	    179.99999979	   1806.52636445	     20.80121392	      9.67440714	    -21.22333895
      4.51000000	     35.55258874	     13.79727827	     18.80376321	   -243.12223787	    817.22360240	      1.31232816	     18.35584261	     45.00000000	     45.00000000	     45.00000000	     44.65592178	   3215.45476160	  -1614.36882224	    -90.00000000	   -105.06424453	   1802.21665656	    227.75139212	     18.38385341	     11.45410495	     10.54885436	    -45.00000000	    -37.57641479	     45.00000000	    -42.17545244	  -2779.40805659	   -453.98439482	    136.77552259	    179.99999979	   1806.44072353	     20.57312892	      8.81586282	    -22.27361526
      4.52000000	     35.55565673	     13.82295492	     18.95545455	   -242.67476666	    816.74156918	      1.25178628	     18.45856765	     45.00000000	     45.00000000	     45.00000000	     44.65908914	   3215.42662617	  -1614.66870741	    -90.00000000	   -104.75868065	   1802.30422901	    225.56629860	     18.36376599	     11.66914235	     10.51706645	    -45.00000000	    -37.65485285	     45.00000000	    -42.29844238	  -2779.49722572	   -454.02140693	    136.87936172	    179.99999979	   1806.66621501	     20.73921440	      8.91212547	    -22.00153751
      4.53000000	     35.52182561	     13.84392071	     19.11017399	   -242.21387755	    816.28633461	      1.18292357	     18.44648100	     45.00000000	     44.95012240	     45.00000000	     44.69419102	   3215.30382653	  -1614.92607849	    -90.00000000	   -104.49614560	   1802.27296660	    223.88584737	     18.36304162	     11.82597188	     10.47336767	    -45.00000000	    -37.69150887	     45.00000000	    -42.33736829	  -2779.57235165	   -454.01490323	    136.89917895	    179.99999979	   1806.67716074	     20.90421404	      8.65399358	    -22.16672280
      4.54000000	     35.48768719	     13.84015152	     19.24491934	   -241.77091297	    815.88063594	      1.10052749	     18.40963738	     45.00000000	     44.89821839	     45.00000000	     44.81454807	   3215.24106549	  -1615.21257366	    -90.00000000	   -104.20465707	   1802.21483393	    222.53022624	     18.38838743	     11.99783152	     10.52697496	    -45.00000000	    -37.71267393	     45.00000000	    -42.41285632	  -2779.60871164	   -453.97292992	    136.85530478	    179.99999979	   1806.72463505	     21.19467604	      8.57194830	    -22.12803820
      4.55000000	     35.47061485	     13.68998815	     19.28824565	   -241.34904189	    815.53276152	      0.99859552	     18.34724248	     45.00000000	     45.00000000	     45.00000000	     44.88257419	   3215.07314426	  -1615.40996588	    -90.00000000	   -104.00240288	   1802.04434330	    221.38367587	     18.39273012	     12.11128436	     10.47086832	    -45.00000000	    -37.62263767	     45.00000000	    -42.30357831	  -2779.68684882	   -453.96268764	    136.85630406	    179.99999979	   1806.72025578	     21.49244442	      8.35611178	    -22.17650493
      4.56000000	     35.28027011	     13.80022812	     19.49030073	   -240.94684594	    815.25921655	      0.87299575	     18.30741344	     45.00000000	     44.76385004	     45.00000000	     44.82231280	   3215.15517172	  -1615.72845601	    -90.00000000	   -103.67919396	   1801.99773428	    220.49372150	     18.45611906	     12.31757102	     10.52851972	    -45.00000000	    -37.79612129	     45.00000000	    -42.42212563	  -2779.64865736	   -453.95870814	    136.84780927	    179.99999979	   1806.79414815	     21.83790803	      8.28143068	    -22.20358814
      4.57000000	     35.37713829	     13.54765108	     19.54687997	   -240.54851578	    815.06438468	      0.72108105	     18.28655105	     45.00000000	     45.00000000	     45.00000000	     44.94145488	   3214.97422677	  -1615.94261435	    -90.00000000	   -103.46042096	   1801.73941576	    219.73174776	     18.48494068	     12.41495377	     10.58487397	    -45.00000000	    -37.64582599	     45.00000000	    -42.34873168	  -2779.72488727	   -453.92886906	    136.81939000	    179.99999979	   1806.77978124	     22.14998226	      8.10023701	    -22.21340561
      4.58000000	     35.32295286	     13.47123970	     19.61527878	   -240.12912111	    814.94469484	      0.53975691	     18.21312250	     45.00000000	     45.00000000	     45.00000000	     45.00000000	   3214.97932160	  -1616.25699016	    -90.00000000	   -103.14106139	   1801.66723208	    219.08557836	     18.53166111	     12.57388567	     10.62523712	    -45.00000000	    -37.81318493	     45.00000000	    -42.36946615	  -2779.64977873	   -453.89404031	    136.74903923	    179.99999979	   1806.91019785	     22.46912745	      8.04177715	    -22.25670875
      4.59000000	     35.22860702	     13.43862357	     19.83406933	   -239.65993319	    814.89086172	      0.32588175	     18.21908372	     45.00000000	     45.00000000	     45.00000000	     44.95603633	   3214.97217733	  -1616.55188734	    -90.00000000	   -102.84138356	   1801.60211723	    218.58990236	     18.58053160	     12.72718995	     10.66252716	    -45.00000000	    -37.89388977	     45.00000000	    -42.35980799	  -2779.68445059	   -453.86982710	    136.84620866	    179.99999979	   1806.97819224	     22.72300815	      7.93367722	    -22.27982910
      4.60000000	     35.17756884	     13.35811031	     20.00633994	   -239.11536602	    814.89399953	      0.07832785	     18.16382314	     45.00000000	     45.00000000	     45.00000000	     45.00000000	   3214.94026165	  -1616.77793642	    -90.00000000	   -102.61070909	   1801.40485422	    218.18739244	     18.64645522	     12.83230882	     10.73864457	    -45.00000000	    -37.97235833	     45.00000000	    -42.31925374	  -2779.67865609	   -453.88102634	    136.84348128	    179.99999979	   1806.94875118	     22.93707025	      7.88381712	    -22.27721233
